<?xml version="1.0" encoding="utf-8"?><!-- Uploaded to: SVG Repo, www.svgrepo.com, Generator: SVG Repo Mixer Tools -->
<svg fill="#000000" width="800px" height="800px" viewBox="0 0 24 24" id="add-user-6" data-name="Flat Color" xmlns="http://www.w3.org/2000/svg" class="icon flat-color"><path id="secondary" d="M19,8a1,1,0,0,1-1-1V6H17a1,1,0,0,1,0-2h1V3a1,1,0,0,1,2,0V4h1a1,1,0,0,1,0,2H20V7A1,1,0,0,1,19,8Z" style="fill: rgb(44, 169, 188);"></path><path id="primary" d="M14.9,12.55A6,6,0,0,0,17,8.5a4.5,4.5,0,0,1-2.47-4,4.45,4.45,0,0,1,.19-1.22A6,6,0,0,0,7.1,12.55,8,8,0,0,0,2,20a2,2,0,0,0,2,2H18a2,2,0,0,0,2-2A8,8,0,0,0,14.9,12.55Z" style="fill: rgb(0, 0, 0);"></path></svg>