<?xml version="1.0" encoding="utf-8"?><!-- Uploaded to: SVG Repo, www.svgrepo.com, Generator: SVG Repo Mixer Tools -->
<svg fill="#000000" width="800px" height="800px" viewBox="0 0 24 24" id="chat-alert-left-3" data-name="Flat Color" xmlns="http://www.w3.org/2000/svg" class="icon flat-color"><path id="primary" d="M4,2H20a2,2,0,0,1,2,2V17a2,2,0,0,1-2,2H13.28L8.51,21.86A1,1,0,0,1,8,22a1,1,0,0,1-.49-.13A1,1,0,0,1,7,21V19H4a2,2,0,0,1-2-2V4A2,2,0,0,1,4,2Z" style="fill: rgb(0, 0, 0);"></path><path id="secondary" d="M12,13a1.5,1.5,0,1,1-1.5,1.5A1.5,1.5,0,0,1,12,13Zm0-2a1,1,0,0,0,1-1V7a1,1,0,0,0-2,0v3A1,1,0,0,0,12,11Z" style="fill: rgb(44, 169, 188);"></path></svg>