<?xml version="1.0" encoding="utf-8"?><!-- Uploaded to: SVG Repo, www.svgrepo.com, Generator: SVG Repo Mixer Tools -->
<svg fill="#000000" width="800px" height="800px" viewBox="0 0 24 24" id="delete-user" data-name="Flat Color" xmlns="http://www.w3.org/2000/svg" class="icon flat-color"><path id="secondary" d="M20.91,17.5l.8-.79a1,1,0,0,0-1.42-1.42l-.79.8-.79-.8a1,1,0,0,0-1.42,1.42l.8.79-.8.79a1,1,0,0,0,0,1.42,1,1,0,0,0,1.42,0l.79-.8.79.8a1,1,0,0,0,1.42,0,1,1,0,0,0,0-1.42Z" style="fill: rgb(44, 169, 188);"></path><path id="primary" d="M6,7a5,5,0,1,1,5,5A5,5,0,0,1,6,7Zm8,7H8a6,6,0,0,0-6,6,2,2,0,0,0,2,2H14a1,1,0,0,0,1-1V15A1,1,0,0,0,14,14Z" style="fill: rgb(0, 0, 0);"></path></svg>