<svg width="23" height="20" viewBox="0 0 23 20" fill="none" xmlns="http://www.w3.org/2000/svg">
<g id="icon/notifications">
<path id="Vector" d="M16.9149 6.48889C16.9149 5.19817 16.3214 3.96031 15.2651 3.04764C14.2087 2.13496 12.776 1.62222 11.2821 1.62222C9.78822 1.62222 8.35551 2.13496 7.29917 3.04764C6.24283 3.96031 5.64938 5.19817 5.64938 6.48889C5.64938 12.1667 2.83301 13.7889 2.83301 13.7889H19.7312C19.7312 13.7889 16.9149 12.1667 16.9149 6.48889Z" stroke="#C9CED6" stroke-width="2" stroke-linecap="round" stroke-linejoin="round"/>
<path id="Vector_2" d="M12.9064 17.0333C12.7414 17.2792 12.5045 17.4832 12.2194 17.6251C11.9344 17.7669 11.6112 17.8416 11.2823 17.8416C10.9534 17.8416 10.6302 17.7669 10.3452 17.6251C10.0602 17.4832 9.82325 17.2792 9.6582 17.0333" stroke="#C9CED6" stroke-width="2" stroke-linecap="round" stroke-linejoin="round"/>
<ellipse id="Ellipse 4" cx="16.915" cy="3.24443" rx="2.81637" ry="2.43333" fill="#2CB67D"/>
</g>
</svg>
