<?xml version="1.0" encoding="utf-8"?><!-- Uploaded to: SVG Repo, www.svgrepo.com, Generator: SVG Repo Mixer Tools -->
<svg fill="#000000" width="800px" height="800px" viewBox="0 0 24 24" id="sport-car-2" data-name="Flat Color" xmlns="http://www.w3.org/2000/svg" class="icon flat-color"><path id="primary" d="M20.63,9.82,18.47,9.1,16.4,7.55A7.57,7.57,0,0,0,11.75,6H10.61A7.69,7.69,0,0,0,7,6.92a7.82,7.82,0,0,0-2.64,2.3L3.1,9.83A2,2,0,0,0,2,11.62V14a2,2,0,0,0,2,2H20a2,2,0,0,0,2-2V11.72A2,2,0,0,0,20.63,9.82Z" style="fill: rgb(0, 0, 0);"></path><path id="secondary" d="M9.5,15.5A2.5,2.5,0,1,1,7,13,2.5,2.5,0,0,1,9.5,15.5ZM17,13a2.5,2.5,0,1,0,2.5,2.5A2.5,2.5,0,0,0,17,13Z" style="fill: rgb(44, 169, 188);"></path></svg>